<?xml version="1.0" encoding="UTF-8"?>
<svg id="Layer_2" data-name="Layer 2" xmlns="http://www.w3.org/2000/svg" viewBox="0 0 113.23 65.77">
  <defs>
    <style>
      .cls-1 {
        fill: #fff;
      }

      .cls-2 {
        fill: #d1cd39;
      }
    </style>
  </defs>
  <g id="Layer_1-2" data-name="Layer 1">
    <g>
      <g>
        <path class="cls-1" d="M45.94,9.14l-6.09,6.09h8.9c.5-2.18,1.39-4.23,2.58-6.09h-5.39Z"/>
        <path class="cls-1" d="M48.32,18.27h-10.79l-6.09,6.09h17.77c-.68-1.86-1-3.91-.89-6.09Z"/>
        <path class="cls-1" d="M67.38,0c-6.45,0-12.55,3.71-16.05,9.14h14.79c1.68,0,3.05,1.36,3.05,3.05,0,.84-.34,1.6-.89,2.15-.55.55-1.31.89-2.15.89h-17.37c-.12.5-.21,1.01-.28,1.52-.07.51-.12,1.02-.14,1.52h9.39c1.68,0,3.05,1.36,3.05,3.05,0,.84-.34,1.6-.89,2.15-.55.55-1.31.89-2.15.89h-8.5c1.99,5.42,7.06,9.14,13.5,9.14,9.16,0,17.63-7.5,18.92-16.75S76.54,0,67.38,0Z"/>
      </g>
      <g>
        <g>
          <path class="cls-1" d="M11.62,50.26l-.27-.12.27-.12c1.27-.53,1.97-1.51,1.97-2.74,0-1.65-1.37-2.55-3.84-2.55h-5.68l-2.24,11.18h6.14c3.21,0,5.12-1.31,5.12-3.5,0-1-.51-1.74-1.46-2.16ZM8.14,53.84h-2.96l.51-2.57h2.96c.95,0,1.47.39,1.47,1.09,0,.94-.72,1.48-1.97,1.48ZM8.57,49.28h-2.47l.49-2.46h2.39c1.23,0,1.48.56,1.48,1.02,0,.92-.67,1.43-1.89,1.43Z"/>
          <path class="cls-1" d="M23.29,44.73h-3.02l-7.17,11.18h3.11l5.06-8.54.87,4.18h-2.34l-1.27,2.13h4.05l.46,2.22h2.95l-2.7-11.18Z"/>
          <path class="cls-1" d="M33.47,53.72c-1.78,0-2.92-1.06-2.92-2.69,0-2.37,1.61-4.1,3.82-4.1,1.11,0,1.97.43,2.55,1.28l2.14-1.71c-.8-1.27-2.43-2-4.47-2-4.15,0-7.05,2.77-7.05,6.74,0,2.98,2.21,4.91,5.63,4.91,2.13,0,3.67-.63,4.84-1.99l-1.73-1.7c-.78.84-1.72,1.27-2.8,1.27Z"/>
          <path class="cls-1" d="M52.16,44.73h-3.43l-5.41,4.9.98-4.9h-2.93l-2.24,11.18h2.93l.54-2.72,1.63-1.47,2.67,4.18h3.31l-3.78-6.07,5.71-5.11Z"/>
          <path class="cls-1" d="M57.16,49.27c-1.1-.29-2.05-.54-2.04-1.26,0-.75.86-1.24,2.19-1.24,1.12,0,2.21.29,3.09.81l1.06-2.17c-1-.58-2.39-.9-3.95-.9-3.26,0-5.36,1.55-5.36,3.96,0,2.08,1.97,2.61,3.54,3.03,1.08.29,2.01.54,2.01,1.25s-.78,1.14-2.09,1.14-2.62-.38-3.76-1.08l-1.16,2.2c1.1.71,2.85,1.14,4.61,1.14,3.27,0,5.38-1.55,5.38-3.94,0-2.02-1.95-2.53-3.51-2.94Z"/>
          <path class="cls-1" d="M65.2,53.61l1.76-8.87h-2.98l-2.24,11.18h8.43l.47-2.31h-5.46Z"/>
          <path class="cls-1" d="M73.95,44.73l-2.24,11.18h2.98l2.24-11.18h-2.98Z"/>
          <path class="cls-1" d="M84.35,44.73h-4.86l-2.24,11.18h5.7c4.19,0,7.01-2.62,7.01-6.51,0-2.88-2.15-4.68-5.61-4.68ZM83.05,53.59h-2.34l1.29-6.53h2c1.88,0,2.95.93,2.95,2.55,0,2.42-1.53,3.98-3.9,3.98Z"/>
          <path class="cls-1" d="M101.23,46.98l.46-2.25h-8.7l-2.24,11.18h8.91l.47-2.25h-6l.46-2.35h5.1l.42-2.17h-5.08l.42-2.18h5.77Z"/>
          <path class="cls-1" d="M113.23,48.25c0-2.23-1.63-3.52-4.48-3.52h-4.78l-2.24,11.18h2.98l.61-3.04h1.81l1.7,3.04h3.09l-1.91-3.38.14-.05c1.96-.67,3.09-2.22,3.09-4.24ZM107.84,50.63h-2.08l.74-3.6h1.8c1.24,0,1.92.54,1.92,1.53,0,1.32-.87,2.07-2.38,2.07Z"/>
        </g>
        <g>
          <path class="cls-2" d="M6.31,60.94c0,1.72-1.21,2.72-3.15,2.72h-1.8l-.4,2.04h-.96l1.34-6.72h2.5c1.57,0,2.47.72,2.47,1.97ZM5.35,61.02c0-.81-.58-1.22-1.59-1.22h-1.61l-.61,3.02h1.64c1.37,0,2.17-.61,2.17-1.8Z"/>
          <path class="cls-2" d="M12.44,59.8l-.41,2.07h3.38l-.16.82h-3.38l-.43,2.17h3.93l-.16.84h-4.89l1.34-6.72h4.74l-.16.84h-3.79Z"/>
          <path class="cls-2" d="M24.52,63.5l1.23,2.19h-1.02l-1.17-2.06h-1.98l-.4,2.06h-.97l1.34-6.72h2.51c1.58,0,2.48.72,2.48,1.97,0,1.34-.75,2.24-2.02,2.56ZM25.58,61.02c0-.81-.58-1.22-1.6-1.22h-1.62l-.61,3.02h1.66c1.37,0,2.17-.61,2.17-1.8Z"/>
          <path class="cls-2" d="M32.79,59.8l-.47,2.34h3.38l-.16.83h-3.38l-.54,2.72h-.96l1.34-6.72h4.74l-.16.84h-3.79Z"/>
          <path class="cls-2" d="M40.22,62.93c0-2.24,1.6-4.04,4.08-4.04,2.01,0,3.17,1.15,3.17,2.83,0,2.24-1.61,4.04-4.09,4.04-2.01,0-3.16-1.15-3.16-2.83ZM46.51,61.78c0-1.21-.79-2.04-2.28-2.04-1.86,0-3.04,1.44-3.04,3.13,0,1.21.8,2.04,2.29,2.04,1.86,0,3.04-1.44,3.04-3.13Z"/>
          <path class="cls-2" d="M55.99,63.5l1.23,2.19h-1.02l-1.17-2.06h-1.98l-.4,2.06h-.97l1.34-6.72h2.51c1.58,0,2.48.72,2.48,1.97,0,1.34-.75,2.24-2.02,2.56ZM57.05,61.02c0-.81-.58-1.22-1.6-1.22h-1.62l-.61,3.02h1.66c1.37,0,2.17-.61,2.17-1.8Z"/>
          <path class="cls-2" d="M70.63,58.97l-1.34,6.72h-.92l.98-4.86-3.18,4.04h-.44l-1.68-4.14-.99,4.96h-.92l1.34-6.72h.78l1.87,4.74,3.68-4.74h.83Z"/>
          <path class="cls-2" d="M79.45,64.01h-3.59l-1.07,1.68h-1.04l4.4-6.72h.95l1.7,6.72h-.95l-.4-1.68ZM79.26,63.24l-.8-3.31-2.11,3.31h2.91Z"/>
          <path class="cls-2" d="M92.4,58.97l-1.34,6.72h-.79l-3.01-5.18-1.03,5.18h-.96l1.34-6.72h.79l3.01,5.18,1.03-5.18h.96Z"/>
          <path class="cls-2" d="M96.61,62.93c0-2.24,1.6-4.04,4.12-4.04,1.11,0,2.01.37,2.47,1.05l-.69.6c-.39-.51-1.01-.79-1.84-.79-1.91,0-3.09,1.44-3.09,3.13,0,1.22.8,2.04,2.31,2.04.82,0,1.51-.27,2.04-.8l.56.63c-.62.68-1.58,1.02-2.66,1.02-2.03,0-3.21-1.15-3.21-2.83Z"/>
          <path class="cls-2" d="M109.08,59.8l-.41,2.07h3.38l-.16.82h-3.38l-.43,2.17h3.93l-.16.84h-4.89l1.34-6.72h4.74l-.16.84h-3.79Z"/>
        </g>
      </g>
    </g>
  </g>
</svg>