<?xml version="1.0" encoding="UTF-8"?>
<svg id="Layer_2" data-name="Layer 2" xmlns="http://www.w3.org/2000/svg" viewBox="0 0 129.72 22.08">
  <defs>
    <style>
      .cls-1 {
        fill: #fff;
      }
    </style>
  </defs>
  <g id="Layer_1-2" data-name="Layer 1">
    <g>
      <g>
        <path class="cls-1" d="M9.56,6.02l-4.02,4.02h5.86c.33-1.44.92-2.79,1.7-4.02h-3.55Z"/>
        <path class="cls-1" d="M11.13,12.05h-7.11L0,16.06h11.71c-.45-1.22-.66-2.58-.59-4.02Z"/>
        <path class="cls-1" d="M23.69,0c-4.25,0-8.27,2.45-10.58,6.02h9.75c1.11,0,2.01.9,2.01,2.01,0,.55-.22,1.06-.59,1.42-.36.36-.87.59-1.42.59h-11.45c-.08.33-.14.67-.19,1-.05.34-.08.67-.09,1h6.19c1.11,0,2.01.9,2.01,2.01,0,.55-.22,1.06-.59,1.42-.36.36-.87.59-1.42.59h-5.6c1.31,3.57,4.65,6.02,8.9,6.02,6.04,0,11.62-4.94,12.47-11.04.85-6.1-3.36-11.04-9.4-11.04Z"/>
      </g>
      <g>
        <g>
          <path class="cls-1" d="M49.71,7.31l-.21-.09.22-.09c1-.42,1.55-1.19,1.55-2.16,0-1.3-1.08-2.01-3.03-2.01h-4.47l-1.76,8.81h4.83c2.52,0,4.03-1.03,4.03-2.76,0-.78-.4-1.37-1.15-1.7ZM46.97,10.12h-2.33l.4-2.03h2.33c.74,0,1.15.3,1.15.86,0,.74-.57,1.17-1.55,1.17ZM47.3,6.53h-1.95l.39-1.94h1.88c.96,0,1.17.44,1.17.81,0,.73-.53,1.13-1.49,1.13Z"/>
          <path class="cls-1" d="M58.89,2.96h-2.38l-5.65,8.81h2.45l3.99-6.72.68,3.29h-1.84l-1,1.68h3.19l.36,1.75h2.33l-2.13-8.81Z"/>
          <path class="cls-1" d="M66.91,10.03c-1.4,0-2.3-.83-2.3-2.12,0-1.87,1.27-3.23,3.01-3.23.88,0,1.55.34,2.01,1.01l1.69-1.34c-.63-1-1.91-1.58-3.52-1.58-3.27,0-5.55,2.18-5.55,5.3,0,2.35,1.74,3.86,4.43,3.86,1.68,0,2.89-.5,3.81-1.57l-1.37-1.34c-.61.66-1.35,1-2.2,1Z"/>
          <path class="cls-1" d="M81.63,2.96h-2.7l-4.26,3.86.77-3.86h-2.31l-1.76,8.81h2.31l.43-2.14,1.28-1.16,2.11,3.3h2.61l-2.97-4.78,4.5-4.03Z"/>
          <path class="cls-1" d="M85.56,6.53c-.87-.23-1.62-.42-1.61-1,0-.59.68-.97,1.72-.97.88,0,1.74.23,2.43.64l.84-1.71c-.78-.46-1.88-.71-3.11-.71-2.57,0-4.22,1.22-4.22,3.12,0,1.64,1.55,2.05,2.79,2.39.85.23,1.58.43,1.58.98s-.61.9-1.64.9-2.06-.3-2.96-.85l-.91,1.73c.86.56,2.24.9,3.63.9,2.57,0,4.24-1.22,4.24-3.1,0-1.59-1.53-1.99-2.76-2.31Z"/>
          <path class="cls-1" d="M91.89,9.94l1.39-6.99h-2.34l-1.76,8.81h6.64l.37-1.82h-4.3Z"/>
          <path class="cls-1" d="M98.79,2.96l-1.76,8.81h2.34l1.76-8.81h-2.34Z"/>
          <path class="cls-1" d="M106.98,2.96h-3.83l-1.76,8.81h4.48c3.3,0,5.52-2.06,5.52-5.12,0-2.27-1.69-3.68-4.42-3.68ZM105.95,9.93h-1.84l1.02-5.14h1.57c1.48,0,2.33.73,2.33,2,0,1.91-1.21,3.14-3.07,3.14Z"/>
          <path class="cls-1" d="M120.26,4.73l.36-1.77h-6.85l-1.76,8.81h7.02l.37-1.77h-4.72l.36-1.85h4.01l.33-1.7h-4l.33-1.72h4.54Z"/>
          <path class="cls-1" d="M129.72,5.73c0-1.76-1.29-2.77-3.53-2.77h-3.77l-1.76,8.81h2.34l.48-2.39h1.43l1.34,2.39h2.43l-1.51-2.66.11-.04c1.54-.53,2.43-1.75,2.43-3.34ZM125.47,7.6h-1.64l.58-2.84h1.42c.98,0,1.51.43,1.51,1.21,0,1.04-.68,1.63-1.88,1.63Z"/>
        </g>
        <g>
          <path class="cls-1" d="M45.52,15.71c0,1.35-.95,2.14-2.48,2.14h-1.41l-.32,1.6h-.76l1.06-5.29h1.97c1.23,0,1.94.57,1.94,1.55ZM44.77,15.78c0-.64-.45-.96-1.26-.96h-1.27l-.48,2.37h1.29c1.08,0,1.71-.48,1.71-1.41Z"/>
          <path class="cls-1" d="M50.35,14.82l-.33,1.63h2.66l-.13.64h-2.66l-.34,1.71h3.09l-.13.66h-3.85l1.06-5.29h3.74l-.13.66h-2.99Z"/>
          <path class="cls-1" d="M59.86,17.73l.97,1.72h-.8l-.92-1.62h-1.56l-.32,1.62h-.76l1.06-5.29h1.97c1.24,0,1.95.57,1.95,1.55,0,1.05-.59,1.76-1.59,2.02ZM60.7,15.78c0-.64-.45-.96-1.26-.96h-1.28l-.48,2.37h1.31c1.08,0,1.71-.48,1.71-1.41Z"/>
          <path class="cls-1" d="M66.37,14.82l-.37,1.85h2.66l-.13.65h-2.66l-.42,2.14h-.76l1.06-5.29h3.74l-.13.66h-2.99Z"/>
          <path class="cls-1" d="M72.23,17.29c0-1.76,1.26-3.18,3.21-3.18,1.58,0,2.5.91,2.5,2.23,0,1.76-1.27,3.18-3.22,3.18-1.58,0-2.49-.91-2.49-2.23ZM77.17,16.38c0-.95-.62-1.6-1.79-1.6-1.47,0-2.4,1.13-2.4,2.47,0,.95.63,1.6,1.8,1.6,1.47,0,2.39-1.13,2.39-2.47Z"/>
          <path class="cls-1" d="M84.65,17.73l.97,1.72h-.8l-.92-1.62h-1.56l-.32,1.62h-.76l1.06-5.29h1.97c1.24,0,1.95.57,1.95,1.55,0,1.05-.59,1.76-1.59,2.02ZM85.48,15.78c0-.64-.45-.96-1.26-.96h-1.28l-.48,2.37h1.31c1.08,0,1.71-.48,1.71-1.41Z"/>
          <path class="cls-1" d="M96.17,14.16l-1.06,5.29h-.73l.77-3.83-2.5,3.18h-.35l-1.32-3.26-.78,3.9h-.73l1.06-5.29h.61l1.47,3.73,2.9-3.73h.65Z"/>
          <path class="cls-1" d="M103.11,18.13h-2.83l-.84,1.32h-.82l3.46-5.29h.75l1.34,5.29h-.75l-.32-1.32ZM102.96,17.53l-.63-2.61-1.66,2.61h2.29Z"/>
          <path class="cls-1" d="M113.31,14.16l-1.06,5.29h-.62l-2.37-4.08-.81,4.08h-.76l1.06-5.29h.62l2.37,4.08.81-4.08h.76Z"/>
          <path class="cls-1" d="M116.63,17.29c0-1.76,1.26-3.18,3.24-3.18.88,0,1.58.29,1.94.82l-.54.47c-.31-.4-.79-.62-1.45-.62-1.51,0-2.44,1.13-2.44,2.47,0,.96.63,1.6,1.82,1.6.64,0,1.19-.21,1.6-.63l.44.5c-.49.54-1.25.8-2.1.8-1.6,0-2.53-.91-2.53-2.23Z"/>
          <path class="cls-1" d="M126.45,14.82l-.33,1.63h2.66l-.13.64h-2.66l-.34,1.71h3.09l-.13.66h-3.85l1.06-5.29h3.74l-.13.66h-2.99Z"/>
        </g>
      </g>
    </g>
  </g>
</svg>